<?xml version="1.0" encoding="UTF-8" standalone="no"?>
<!-- Created with Inkscape (http://www.inkscape.org/) -->

<svg
   version="1.1"
   id="svg1"
   width="1205.6836"
   height="423.2511"
   viewBox="0 0 1205.6836 423.2511"
   sodipodi:docname="logo.svg"
   inkscape:version="1.3.2 (091e20e, 2023-11-25)"
   xmlns:inkscape="http://www.inkscape.org/namespaces/inkscape"
   xmlns:sodipodi="http://sodipodi.sourceforge.net/DTD/sodipodi-0.dtd"
   xmlns="http://www.w3.org/2000/svg"
   xmlns:svg="http://www.w3.org/2000/svg">
  <defs
     id="defs1" />
  <sodipodi:namedview
     id="namedview1"
     pagecolor="#000000"
     bordercolor="#000000"
     borderopacity="0.25"
     inkscape:showpageshadow="2"
     inkscape:pageopacity="0.0"
     inkscape:pagecheckerboard="true"
     inkscape:deskcolor="#d1d1d1"
     inkscape:zoom="0.4609375"
     inkscape:cx="208.27119"
     inkscape:cy="496.81356"
     inkscape:window-width="1800"
     inkscape:window-height="1007"
     inkscape:window-x="0"
     inkscape:window-y="567"
     inkscape:window-maximized="0"
     inkscape:current-layer="g1" />
  <g
     inkscape:groupmode="layer"
     inkscape:label="Image"
     id="g1"
     transform="translate(-111.7264,-306.74889)">
    <path
       style="fill:#ffffff"
       d="m 125.88247,727.20726 c -20.44901,-8.93459 -13.83402,-35.01524 -4.26541,-49.72623 12.97096,-28.78012 24.32986,-58.29206 38.48354,-86.53324 16.56552,-3.29539 51.97612,5.686 41.79427,27.93313 -14.08002,32.72559 -27.31677,65.87067 -42.40212,98.16733 -5.34076,12.03346 -22.43979,16.86896 -33.61028,10.15901 z M 194.5,590.84901 c -12.84296,-2.87948 -29.65882,-13.10886 -17.35845,-26.72415 -10.03589,-15.7385 -30.59451,-22.42813 -39.38235,-40.1732 -36.95412,-49.16421 -33.65074,-122.4927 5.99135,-169.14665 35.53715,-43.75643 99.80876,-59.3125 151.95703,-38.67961 53.07048,18.52713 89.80648,73.07765 88.3425,129.06303 0.5045,57.98804 -40.73378,113.15997 -96.62437,128.81955 -21.8781,7.10846 -45.19817,6.56289 -67.69127,3.38126 -17.22866,-3.6229 -7.26694,28.15139 -25.23444,13.45977 z m 73.77611,-32.81073 c 60.58859,-9.02086 105.47136,-73.04282 94.40761,-133.12276 -7.88782,-56.8367 -63.63644,-102.44376 -121.11393,-97.41325 -50.05073,1.51833 -96.53818,39.66053 -106.51512,88.98646 -12.88613,49.03145 10.67229,104.90649 55.88218,128.48615 23.24764,13.00096 51.07767,18.50166 77.33926,13.0634 z m -36.97025,-8.46468 c -22.76689,-3.88773 -44.04395,-15.55885 -59.84086,-32.36793 12.47483,-10.42474 5.37761,-37.26294 24.47347,-38.67919 3.76841,-13.36583 -8.46861,-37.96336 -23.67697,-25.08505 -27.31492,2.06265 6.10511,-22.99237 5.38336,-35.68926 5.23783,-21.39981 7.37775,-46.56803 29.13404,-58.50948 7.36419,-6.27178 18.81302,-5.64251 9.92765,-13.06326 14.75015,-12.66654 29.08412,1.56785 43.98107,3.90447 19.20883,5.99518 37.01237,20.19993 42.78341,39.94829 3.95787,13.95232 40.19917,12.24933 30.08662,26.45315 -13.06641,0.95007 -33.24219,0.003 -22.01656,18.57795 6.78267,10.61624 21.1344,35.04101 -3.4542,32.19398 -4.70076,5.81739 2.55434,16.82625 -6.0422,23.81763 6.10284,14.77636 -5.48638,28.21598 -21.66922,21.64782 -12.17796,-7.85254 -22.64428,6.8518 -7.37794,11.97426 11.78454,8.78974 5.22907,31.17836 -12.58264,25.85232 -9.67244,-0.73932 -19.62881,1.54157 -29.10903,-0.9757 z"
       id="path1" />
    <text
       xml:space="preserve"
       style="font-size:202.536px;fill:#000000;stroke-width:16.878"
       x="439.8215"
       y="584.97479"
       id="text1"><tspan
         sodipodi:role="line"
         id="tspan1"
         x="439.8215"
         y="584.97479"
         style="font-style:normal;font-variant:normal;font-weight:normal;font-stretch:normal;font-family:Silom;-inkscape-font-specification:Silom;stroke-width:16.878"><tspan
           style="fill:#ffffff"
           id="tspan3">SHER</tspan><tspan
           style="fill:#fe9a00"
           id="tspan2">LOG</tspan></tspan></text>
  </g>
</svg>
